<?xml version="1.0" encoding="UTF-8"?>
<svg xmlns="http://www.w3.org/2000/svg" id="Layer_1" data-name="Layer 1" viewBox="0 0 24 24">
  <path d="M19,2h-6.528c-.154,0-.31-.037-.447-.105L8.869,.316c-.415-.207-.878-.316-1.341-.316h-2.528C2.243,0,0,2.243,0,5v12c0,2.757,2.243,5,5,5h3c.552,0,1-.447,1-1s-.448-1-1-1h-3c-1.654,0-3-1.346-3-3V8H22v1c0,.552,.447,1,1,1s1-.448,1-1v-2c0-2.757-2.243-5-5-5ZM2,5c0-1.654,1.346-3,3-3h2.528c.154,0,.31,.037,.447,.105l3.156,1.578c.415,.207,.878,.316,1.341,.316h6.528c1.302,0,2.402,.839,2.816,2H2v-1Zm18.5,12c0,.553-.447,1-1,1h-1.5v1.5c0,.553-.447,1-1,1s-1-.447-1-1v-1.5h-1.5c-.553,0-1-.447-1-1s.447-1,1-1h1.5v-1.5c0-.553,.447-1,1-1s1,.447,1,1v1.5h1.5c.553,0,1,.447,1,1Zm-3.5-7c-3.859,0-7,3.141-7,7s3.141,7,7,7,7-3.141,7-7-3.141-7-7-7Zm0,12c-2.757,0-5-2.243-5-5s2.243-5,5-5,5,2.243,5,5-2.243,5-5,5Z"/>
</svg>
